<svg width="18" height="18" viewBox="0 0 18 18" fill="none" xmlns="http://www.w3.org/2000/svg">
<path d="M9 18C4.03734 18 0 13.9627 0 9C0 4.03734 4.03734 0 9 0C13.9627 0 18 4.03734 18 9C18 13.9627 13.9627 18 9 18ZM9 1.29961C4.75406 1.29961 1.29961 4.75406 1.29961 9C1.29961 13.2459 4.75406 16.7004 9 16.7004C13.2459 16.7004 16.7004 13.2459 16.7004 9C16.7004 4.75406 13.2459 1.29961 9 1.29961Z" fill="black"/>
<path d="M6.97148 6.00001L8.76668 11.8594H8.83332L10.6285 6.00001H12.8L10.0915 14H7.50848L4.8 6.00001H6.97148Z" fill="black"/>
</svg>
